# Blender 4.3.2
# www.blender.org
mtllib fur.mtl
o Cube
v 0.847396 2.912664 0.826622
v 0.273961 3.214103 0.400352
v -0.275500 2.672716 0.853025
v -0.723930 2.564094 0.295218
v 0.952226 3.357727 -0.214240
v -0.387550 2.226264 -0.397523
v -0.445179 2.314159 -0.885162
v -0.941288 2.164505 -0.406229
v -1.647866 3.050447 -0.766621
v -1.897454 3.066760 -0.509102
v 0.048648 1.537675 -0.028343
v 0.742944 0.911734 0.737456
v 0.552881 0.274060 0.426184
v -0.873456 0.572570 -1.028110
v 0.336047 3.037771 0.809991
v 0.604536 3.126431 0.910434
v -0.323599 2.692324 0.252227
v 0.688080 3.229221 0.251765
v -0.790707 2.629496 0.707161
v -1.039718 2.131354 -0.650081
v 0.776172 3.343136 -0.682325
v -0.290549 2.858785 0.573699
v -0.629956 2.158916 -0.988767
v -0.779277 2.317946 -0.331860
v 1.371830 3.295454 -0.371957
v 0.650969 0.208509 -0.976578
v 0.889983 0.555764 -0.985139
v -0.844285 1.416551 -0.182177
v -0.081924 1.413544 -0.903107
v -2.069032 3.050418 -0.678266
v -1.919633 3.032144 -0.848961
v -0.329775 2.305825 -0.646385
v -0.509709 1.489181 -0.127462
v 0.030269 1.811250 0.506907
v 0.943880 1.865124 0.028301
v -0.946876 0.790875 0.056753
v 0.977238 0.667523 -0.215081
v -0.454369 1.163828 -1.038696
v 0.019870 0.864764 0.961098
v 0.712578 3.456917 0.547481
v -0.413853 1.660066 1.003263
v 0.009944 0.196534 0.546563
v 1.027174 1.818778 0.425152
v -0.014198 1.504205 -0.443806
v 0.471287 1.081228 -1.019319
v -0.001869 0.069250 -0.950928
v -0.904375 2.126266 -0.902274
v -0.653276 0.229662 -1.001504
v 1.197999 3.270173 -0.822107
v -0.949477 1.264724 -0.533972
v -0.731908 0.913016 0.728047
v -0.553851 0.281640 0.412705
v 1.137564 3.650786 -0.497804
vn 0.8075 0.1566 0.5687
vn -0.7041 0.6296 -0.3284
vn 0.4045 0.5257 0.7484
vn -0.6306 0.5406 -0.5568
vn -0.2869 0.5306 0.7976
vn 0.5483 0.5279 0.6486
vn 0.5687 0.5491 -0.6124
vn -0.6338 -0.1741 0.7537
vn 0.3259 0.8984 -0.2944
vn -0.3588 0.5291 0.7690
vn -0.3994 0.7979 -0.4514
vn 0.6509 -0.2864 0.7031
vn 0.5115 -0.7477 0.4235
vn -0.7034 -0.2747 -0.6556
vn -0.6916 0.3759 0.6167
vn 0.0247 0.4819 0.8759
vn 0.3397 0.6873 -0.6421
vn 0.4266 0.4817 -0.7655
vn -0.7442 0.5393 0.3940
vn -0.8711 -0.4895 -0.0399
vn -0.6745 0.5853 -0.4499
vn 0.3659 0.9303 0.0252
vn 0.0908 0.1580 -0.9833
vn 0.0040 0.3034 0.9528
vn 0.8897 0.2560 0.3779
vn 0.4129 -0.6968 -0.5865
vn 0.6685 -0.3171 -0.6727
vn -0.9609 0.2399 0.1380
vn 0.0819 0.3805 -0.9211
vn -0.9609 0.2769 0.0067
vn -0.4904 0.3446 -0.8004
vn 0.7632 0.6451 0.0369
vn 0.1351 0.9835 -0.1205
vn -0.0951 0.8666 0.4898
vn 0.9518 0.1773 0.2504
vn -0.9622 -0.2360 0.1360
vn 0.9272 -0.3681 0.0695
vn -0.0047 0.0759 -0.9971
vn 0.0200 -0.2832 0.9588
vn 0.3465 0.9370 0.0450
vn -0.2017 0.0222 0.9792
vn -0.0081 -0.8366 0.5478
vn 0.9840 0.0202 0.1770
vn -0.2269 0.9428 0.2440
vn 0.0202 0.0680 -0.9975
vn -0.0011 -0.8488 -0.5287
vn -0.5375 -0.2495 -0.8055
vn -0.4343 -0.6820 -0.5885
vn 0.5240 0.2913 -0.8004
vn -0.9998 0.0042 0.0213
vn -0.6865 -0.2734 0.6737
vn -0.5242 -0.7461 0.4106
vn 0.1629 0.9866 0.0062
vt 0.371966 0.687989
vt 0.375000 0.708804
vt 0.375001 0.750002
vt 0.539390 0.620589
vt 0.624735 0.562666
vt 0.625000 0.625000
vt 0.555028 0.750000
vt 0.610623 0.679154
vt 0.625000 0.750000
vt 0.625000 0.209934
vt 0.534703 0.250000
vt 0.549443 0.190518
vt 0.564403 0.123278
vt 0.556937 0.148033
vt 0.500000 0.125000
vt 0.375000 0.562500
vt 0.375000 0.625000
vt 0.374896 0.500404
vt 0.373663 0.563252
vt 0.416196 0.000000
vt 0.488195 0.033098
vt 0.434992 0.059992
vt 0.441830 0.101653
vt 0.419168 0.140859
vt 0.475815 0.179275
vt 0.417412 0.189273
vt 0.437500 0.250000
vt 0.375000 0.250000
vt 0.875000 0.687500
vt 0.875000 0.625000
vt 0.875000 0.687500
vt 0.548668 1.000000
vt 0.609215 0.928352
vt 0.625000 1.000000
vt 0.625000 0.875000
vt 0.625000 0.937500
vt 0.394522 0.125000
vt 0.375000 0.078955
vt 0.506523 0.073657
vt 0.500000 0.000000
vt 0.805028 0.500000
vt 0.874824 0.540176
vt 0.783736 0.615390
vt 0.500619 0.188607
vt 0.520833 0.104167
vt 0.565104 0.122396
vt 0.375000 0.529740
vt 0.375000 0.625000
vt 0.875000 0.750000
vt 0.875000 0.750000
vt 0.527447 0.873734
vt 0.625000 0.875000
vt 0.375000 0.979745
vt 0.767820 0.746102
vt 0.858671 0.677483
vt 0.375000 0.500000
vt 0.502604 0.059896
vt 0.593943 0.115053
vt 0.508621 0.028825
vt 0.625000 0.125000
vt 0.500000 0.250000
vt 0.500000 0.254631
vt 0.375942 0.250000
vt 0.625000 0.250000
vt 0.548668 0.500000
vt 0.625000 0.500000
vt 0.625000 0.659703
vt 0.375000 0.625000
vt 0.625000 0.750000
vt 0.624936 0.828995
vt 0.508690 0.754285
vt 0.875000 0.625000
vt 0.875000 0.625000
vt 0.125509 0.514000
vt 0.135510 0.750000
vt 0.595260 0.000000
vt 0.618650 0.062235
vt 0.375000 0.478433
vt 0.500000 0.486231
vt 0.625000 0.479745
vt 0.375000 0.625000
vt 0.375000 0.500000
vt 0.375000 0.750000
vt 0.375660 0.750000
vt 0.625057 0.750000
vt 0.625000 0.521567
s 1
f 45/1/45 49/2/49 27/3/27
f 39/4/39 16/5/16 15/6/15
f 51/7/51 41/8/41 19/9/19
f 19/10/19 3/11/3 22/12/22
f 33/13/33 17/14/17 11/15/11
f 23/16/23 7/17/7 29/17/29
f 45/1/45 14/18/14 38/19/38
f 49/20/49 21/21/21 53/22/53
f 21/21/21 5/23/5 53/22/53
f 18/24/18 2/25/2 40/26/40
f 40/26/40 16/27/16 1/28/1
f 20/29/20 8/30/8 30/31/30
f 12/32/12 43/33/43 1/34/1
f 43/33/43 18/35/18 40/36/40
f 35/37/35 5/23/5 11/15/11
f 35/37/35 25/38/25 5/23/5
f 44/39/44 21/21/21 29/40/29
f 44/39/44 5/23/5 21/21/21
f 51/41/51 19/42/19 36/43/36
f 34/44/34 2/25/2 11/15/11
f 33/13/33 6/45/6 24/46/24
f 31/47/31 9/48/9 7/17/7
f 45/1/45 27/3/27 14/18/14
f 30/31/30 31/49/31 47/50/47
f 43/33/43 37/51/37 35/52/35
f 13/53/13 37/51/37 12/32/12
f 14/54/14 50/55/50 47/50/47
f 47/56/47 31/47/31 23/16/23
f 6/45/6 32/57/32 10/58/10
f 7/40/7 9/59/9 32/57/32
f 28/60/28 33/13/33 8/60/8
f 34/44/34 3/11/3 39/61/39
f 34/44/34 17/14/17 22/12/22
f 46/62/46 48/63/48 26/64/26
f 16/5/16 39/4/39 12/65/12 1/66/1
f 32/57/32 44/39/44 29/40/29 7/40/7
f 19/10/19 22/12/22 17/14/17 4/60/4
f 44/39/44 32/57/32 6/45/6
f 39/4/39 3/67/3 41/8/41
f 41/8/41 3/67/3 19/9/19
f 4/60/4 17/14/17 33/13/33 28/60/28
f 21/68/21 49/2/49 45/1/45 29/17/29
f 47/56/47 23/16/23 38/19/38 14/18/14
f 38/19/38 23/16/23 29/17/29
f 16/27/16 40/26/40 2/25/2 15/61/15
f 24/46/24 6/45/6 10/58/10
f 38/19/38 29/17/29 45/1/45
f 49/20/49 53/22/53 25/38/25
f 25/38/25 53/22/53 5/23/5
f 49/69/49 25/70/25 37/51/37 27/71/27
f 35/52/35 37/51/37 25/70/25
f 4/72/4 28/73/28 36/43/36 19/42/19
f 14/18/14 27/3/27 48/74/48
f 26/75/26 48/74/48 27/3/27
f 20/29/20 30/31/30 47/50/47
f 35/52/35 18/35/18 43/33/43
f 43/33/43 40/36/40 1/34/1
f 31/76/31 30/77/30 9/59/9
f 9/59/9 30/77/30 10/58/10
f 44/39/44 11/15/11 5/23/5
f 15/61/15 2/25/2 34/44/34 39/61/39
f 52/78/52 48/63/48 46/62/46 42/79/42
f 8/60/8 24/46/24 10/58/10
f 8/60/8 33/13/33 24/46/24
f 13/80/13 42/79/42 46/62/46 26/64/26
f 2/25/2 18/24/18 35/37/35 11/15/11
f 39/4/39 42/81/42 13/82/13 12/65/12
f 39/4/39 51/7/51 52/83/52 42/81/42
f 51/7/51 39/4/39 41/8/41
f 13/53/13 26/84/26 27/71/27 37/51/37
f 30/31/30 8/30/8 10/72/10
f 8/30/8 20/29/20 50/55/50 28/73/28
f 12/32/12 37/51/37 43/33/43
f 14/54/14 48/85/48 52/86/52 36/43/36
f 47/50/47 50/55/50 20/29/20
f 23/16/23 31/47/31 7/17/7
f 52/86/52 51/41/51 36/43/36
f 28/73/28 50/55/50 36/43/36
f 14/54/14 36/43/36 50/55/50
f 10/58/10 32/57/32 9/59/9
f 33/13/33 11/15/11 44/39/44
f 33/13/33 44/39/44 6/45/6
f 34/44/34 11/15/11 17/14/17
f 34/44/34 22/12/22 3/11/3
